Coordinates
version=1
nRows=13
nColumns=22
inDegrees=yes

Units are S.I. units (second, meters, Newtons, ...)
If the header above contains a line with 'inDegrees', this indicates whether rotational values are in degrees (yes) or radians (no).

endheader
time	pelvis_tilt	pelvis_list	pelvis_rotation	pelvis_tx	pelvis_ty	pelvis_tz	hip_flexion_r	hip_adduction_r	hip_rotation_r	knee_angle_r	ankle_angle_r	subtalar_angle_r	hip_flexion_l	hip_adduction_l	hip_rotation_l	knee_angle_l	ankle_angle_l	subtalar_angle_l	lumbar_extension	lumbar_bending	lumbar_rotation
      1.54000000	     -4.37650688	     -7.42308817	      6.97261999	     -1.07728359	      0.97447833	     -0.26756722	      8.83558760	      6.74391633	     -4.27138515	    -17.29240714	     10.86401628	      0.74653768	      4.40297857	     -7.93752983	      6.21807892	     -7.50561362	     11.50266590	      0.33529315	      2.35406155	      6.66672067	     -7.19625953
      1.55000000	     -4.40944639	     -7.37614799	      6.98325126	     -1.07705926	      0.97437376	     -0.26717008	      8.93023628	      6.71681552	     -4.26038365	    -17.42943011	     10.93507982	      0.72496324	      4.43225064	     -7.91300455	      6.22225739	     -7.52446609	     11.53228667	      0.41930760	      2.32644443	      6.64387735	     -7.22721452
      1.56000000	     -4.43992055	     -7.32969790	      6.99781213	     -1.07679230	      0.97427050	     -0.26673717	      9.01446302	      6.69344082	     -4.25046212	    -17.55711108	     11.00746678	      0.70105903	      4.46180211	     -7.89114535	      6.23142301	     -7.55177059	     11.56766268	      0.50736888	      2.29579806	      6.62274668	     -7.26240885
      1.57000000	     -4.46788297	     -7.28498968	      7.01835177	     -1.07648682	      0.97416960	     -0.26627361	      9.08795264	      6.67462293	     -4.24354812	    -17.67413437	     11.08067582	      0.67450980	      4.49267133	     -7.87268050	      6.24636681	     -7.58795871	     11.60885666	      0.59952088	      2.26126005	      6.60512347	     -7.30203030
      1.58000000	     -4.51223652	     -7.23783773	      7.04619433	     -1.07616018	      0.97405133	     -0.26577823	      9.17412379	      6.65210118	     -4.24564945	    -17.78456812	     11.13092338	      0.63654907	      4.54960146	     -7.85071210	      6.26387516	     -7.63790418	     11.64946139	      0.76038631	      2.24246385	      6.58278736	     -7.36354644
      1.59000000	     -4.52028137	     -7.20946176	      7.07364041	     -1.07576252	      0.97396510	     -0.26524067	      9.20527608	      6.65958168	     -4.23516324	    -17.87035238	     11.21196654	      0.61349098	      4.55945334	     -7.85730456	      6.29293937	     -7.67857536	     11.69953790	      0.80504630	      2.18383575	      6.58913806	     -7.39349261
      1.60000000	     -4.53613710	     -7.17081842	      7.11047905	     -1.07533411	      0.97386850	     -0.26466180	      9.24018664	      6.65622128	     -4.24533002	    -17.95376198	     11.29086900	      0.58356347	      4.58337563	     -7.85337024	      6.32572463	     -7.73058796	     11.74852229	      0.86930973	      2.13079492	      6.58071012	     -7.44387403
      1.61000000	     -4.56213376	     -7.13554560	      7.15323938	     -1.07487481	      0.97375811	     -0.26404162	      9.27867589	      6.65680073	     -4.26636436	    -18.02577790	     11.36849211	      0.54584896	      4.61944900	     -7.85419503	      6.36341584	     -7.78343379	     11.79915306	      0.95261136	      2.08803372	      6.57616330	     -7.49879308
      1.62000000	     -4.59258353	     -7.10424245	      7.19080702	     -1.07435949	      0.97364282	     -0.26334695	      9.31277191	      6.66699564	     -4.28508192	    -18.08676598	     11.43767120	      0.50693438	      4.65598298	     -7.86400927	      6.39609769	     -7.83445255	     11.84560544	      1.03282458	      2.05081661	      6.57336482	     -7.55077691
      1.63000000	     -4.63091908	     -7.07298980	      7.22877691	     -1.07380556	      0.97351252	     -0.26261184	      9.34866481	      6.67785039	     -4.31116066	    -18.13924996	     11.51258022	      0.46044175	      4.69938503	     -7.87516053	      6.42263460	     -7.88565325	     11.89860126	      1.12143793	      2.02045224	      6.57330792	     -7.60014773
      1.64000000	     -4.65811085	     -7.04269333	      7.24468825	     -1.07319579	      0.97340688	     -0.26178893	      9.36751586	      6.70110717	     -4.29452234	    -18.18876005	     11.54617221	      0.44471283	      4.70987273	     -7.89614251	      6.43499948	     -7.91071195	     11.91394888	      1.14591719	      1.97339692	      6.57791799	     -7.63657582
      1.65000000	     -4.73448623	     -7.00748847	      7.28345241	     -1.07257741	      0.97321163	     -0.26093848	      9.44516725	      6.70726885	     -4.34983951	    -18.25046311	     11.62231788	      0.34220436	      4.81058857	     -7.90351773	      6.45117806	     -7.99586340	     12.00576465	      1.34736947	      1.98197197	      6.56770157	     -7.69526820
      1.66000000	     -4.76862550	     -6.98116301	      7.28443123	     -1.07181221	      0.97307483	     -0.25998330	      9.45139467	      6.74412649	     -4.33059387	    -18.28136294	     11.71685593	      0.31189828	      4.82001915	     -7.93698947	      6.44743555	     -8.02783343	     12.04529358	      1.38208327	      1.94958152	      6.57521842	     -7.71298847
